<svg width="172" height="24" viewBox="0 0 172 24" fill="none" xmlns="http://www.w3.org/2000/svg">
<mask id="mask0_19691_49157" style="mask-type:luminance" maskUnits="userSpaceOnUse" x="0" y="5" width="79" height="13">
<path fill-rule="evenodd" clip-rule="evenodd" d="M0 5.40015H78.6485V17.5737H0V5.40015Z" fill="white"/>
</mask>
<g mask="url(#mask0_19691_49157)">
<path fill-rule="evenodd" clip-rule="evenodd" d="M50.043 6.11038V9.5629C49.6087 9.10224 49.1928 8.74318 48.7663 8.51136C48.3437 8.28646 47.8811 8.18091 47.3922 8.18091C46.5148 8.18091 45.7864 8.47388 45.2147 9.11704C44.6674 9.72369 44.385 10.5286 44.385 11.5299C44.385 12.4601 44.6889 13.2275 45.2323 13.8588C45.8078 14.4744 46.5323 14.7713 47.3922 14.7713C47.8811 14.7713 48.3437 14.6608 48.7663 14.4359C49.1928 14.2179 49.6087 13.8588 50.043 13.3656V16.8418C49.5434 17.0588 49.0585 17.2591 48.5842 17.3794C48.07 17.5067 47.588 17.555 47.0913 17.555C46.4681 17.555 45.873 17.4919 45.3589 17.3271C44.8184 17.1881 44.3363 16.9582 43.8796 16.6514C43.0392 16.0714 42.3867 15.3365 41.9388 14.4606C41.4811 13.5649 41.2668 12.5765 41.2668 11.4707C41.2668 10.5819 41.409 9.77104 41.6885 9.05292C41.9651 8.32 42.4082 7.67289 42.9749 7.0761C43.5242 6.51778 44.1299 6.09657 44.8184 5.81642C45.4913 5.53036 46.2597 5.40015 47.0913 5.40015C47.588 5.40015 48.07 5.44552 48.5842 5.56784C49.0585 5.69805 49.5434 5.86476 50.043 6.11038V6.11038ZM28.9096 17.2592V5.65472H32.0297V10.1815H36.1929V5.65472H39.3198V17.2592H36.1929V12.5391H32.0297V17.2592H28.9096ZM27.1475 6.11038V9.5629C26.7161 9.10224 26.2983 8.74318 25.8708 8.51136C25.4618 8.28646 24.9904 8.18091 24.5103 8.18091C23.6008 8.18091 22.8792 8.47388 22.3251 9.11704C21.7739 9.72369 21.4885 10.5286 21.4885 11.5299C21.4885 12.4601 21.7826 13.2275 22.3387 13.8588C22.9152 14.4744 23.6358 14.7713 24.5103 14.7713C24.9904 14.7713 25.4618 14.6608 25.8708 14.4359C26.2983 14.2179 26.7161 13.8588 27.1475 13.3656V16.8418C26.643 17.0588 26.1649 17.2591 25.676 17.3794C25.1803 17.5067 24.6924 17.555 24.1968 17.555C23.5735 17.555 22.9795 17.4919 22.4604 17.3271C21.9229 17.1881 21.4447 16.9582 20.9948 16.6514C20.1447 16.0714 19.4932 15.3365 19.0364 14.4606C18.5855 13.5649 18.3616 12.5765 18.3616 11.4707C18.3616 10.5819 18.5232 9.77104 18.7988 9.05292C19.0812 8.32 19.5039 7.67289 20.0775 7.0761C20.6325 6.51778 21.2314 6.09657 21.9102 5.81642C22.5987 5.53036 23.3466 5.40015 24.1968 5.40015C24.6924 5.40015 25.1803 5.44552 25.676 5.56784C26.1649 5.69805 26.643 5.86476 27.1475 6.11038V6.11038ZM9.78274 17.2592V5.65472H16.7865V8.21452H12.8133V10.216H16.5587V12.7048H12.8133V14.6609H16.7865V17.2592H9.78274ZM57.4503 5.41191V8.07035C56.5855 8.07035 55.8707 8.40574 55.2962 9.05284C54.7226 9.7029 54.448 10.5177 54.448 11.4923C54.448 12.4748 54.7226 13.2935 55.2816 13.9308C55.8366 14.5789 56.5641 14.8896 57.4503 14.8896V17.5737C56.6274 17.5737 55.8366 17.4168 55.0926 17.1189C54.3447 16.8013 53.6981 16.3653 53.1158 15.7862C52.5285 15.2112 52.0854 14.5601 51.7738 13.8242C51.4797 13.0874 51.3229 12.315 51.3229 11.4923C51.3229 10.6519 51.4797 9.87454 51.7738 9.14754C52.0854 8.40574 52.5285 7.75765 53.1158 7.1796C53.6981 6.62128 54.3447 6.18527 55.0926 5.86468C55.8366 5.54902 56.6274 5.41191 57.4503 5.41191V5.41191ZM2.5714 17.2592V8.40589H-0.000488281V5.65472H8.2508V8.40589H5.6867V17.2592H2.5714ZM78.6483 17.2592H75.7259L75.0549 12.2412C75.0169 11.8949 74.9604 11.5181 74.9303 11.0683C74.8903 10.6323 74.8621 10.1558 74.83 9.6488C74.7637 10.143 74.6021 10.7576 74.3966 11.4924C74.3343 11.6434 74.3089 11.7617 74.2914 11.8259L72.7343 17.2592H70.6561L69.0989 11.8259C69.0795 11.7617 69.0551 11.6434 68.9938 11.4924C68.7893 10.7576 68.6315 10.143 68.5857 9.6488C68.5517 10.0907 68.5146 10.5287 68.4572 10.9677C68.427 11.3879 68.3734 11.8259 68.3247 12.2412L67.6479 17.2592H64.744L66.5047 5.65472H69.6063L71.3339 11.6434C71.3339 11.6858 71.368 11.7617 71.3787 11.8653C71.5569 12.395 71.6601 12.8409 71.6942 13.2276C71.7127 13.0165 71.7458 12.7916 71.8208 12.5391C71.8705 12.2855 71.9513 11.9778 72.0389 11.6345L73.7889 5.65472H76.8838L78.6483 17.2592ZM57.4501 17.5737V14.8896C58.3148 14.8896 59.0101 14.5789 59.5847 13.9308C60.1671 13.2777 60.4319 12.4748 60.4319 11.4923C60.4319 10.5177 60.1671 9.7029 59.573 9.05284C59.0014 8.40574 58.2973 8.07035 57.4501 8.07035V5.41191C58.2564 5.41191 59.0384 5.54902 59.798 5.86468C60.542 6.18527 61.2168 6.62128 61.7865 7.1796C62.3504 7.75765 62.7925 8.40574 63.0973 9.14754C63.4128 9.87454 63.5657 10.6519 63.5657 11.4923C63.5657 12.315 63.4128 13.1022 63.0973 13.842C62.8022 14.5601 62.3504 15.2112 61.7865 15.7862C61.1993 16.3653 60.542 16.8013 59.7765 17.1189C59.0384 17.4168 58.2564 17.5737 57.4501 17.5737V17.5737Z" fill="white"/>
</g>
<path fill-rule="evenodd" clip-rule="evenodd" d="M82.9428 10.6143H83.5543C83.814 10.6143 84.0394 10.5944 84.2471 10.5811V12.6022H84.0658H82.9428V15.0169H84.0237H84.2471V17.2925C83.9521 17.2925 83.6248 17.3001 83.2534 17.3001H80.0186V6.15576H83.1858C83.5651 6.15576 83.9169 6.15576 84.2471 6.17942V8.39542C84.055 8.37365 83.8306 8.35662 83.6062 8.35662H82.9428V10.6143ZM95.5512 6.15576V7.97057L95.5433 7.95449C95.4669 8.24592 95.4228 8.49571 95.3493 8.74457C95.2807 8.99625 95.2121 9.23659 95.1474 9.45895L93.9979 13.1321H95.5512V15.3046H93.3168L92.7083 17.3001H89.589L93.5608 6.15576H95.5512ZM84.2471 10.5813C84.6498 10.5463 84.9585 10.481 85.1604 10.3608C85.4318 10.1867 85.572 9.90284 85.572 9.5026C85.572 9.08533 85.4544 8.79484 85.1741 8.62831C84.9987 8.51193 84.6832 8.42961 84.2471 8.39555V6.17955C84.9801 6.19185 85.5357 6.22686 85.8797 6.27795C86.4108 6.3527 86.8557 6.49747 87.2232 6.69901C87.6642 6.92894 87.9739 7.23645 88.1895 7.62439C88.4256 8.0095 88.5295 8.44759 88.5295 8.95191C88.5295 9.58208 88.3708 10.0694 88.0435 10.4554C87.6887 10.8235 87.1772 11.0969 86.4393 11.3108C87.2556 11.3742 87.8955 11.6382 88.3531 12.1236C88.8274 12.627 89.0469 13.2817 89.0469 14.1106C89.0469 14.7114 88.9264 15.2252 88.6648 15.6841C88.4031 16.1288 88.0248 16.4865 87.5545 16.7325C87.1537 16.9293 86.6676 17.0769 86.0855 17.1659C85.671 17.2387 85.0457 17.269 84.2471 17.2927V15.0171C84.8782 14.9962 85.329 14.9177 85.6024 14.7427C85.915 14.5846 86.0767 14.28 86.0767 13.8542C86.0767 13.3886 85.915 13.0527 85.6445 12.8872C85.3789 12.697 84.9095 12.6165 84.2471 12.6024V10.5813ZM116.318 17.3001V6.15576H119.434V11.217L123.09 6.15576H126.743L122.477 11.5917L127.113 17.3001H123.198L119.434 12.2947V17.3001H116.318ZM102.594 17.3001V6.15576H105.613L109.971 11.8831C110.053 12.0108 110.19 12.2427 110.386 12.6022C110.579 12.9457 110.784 13.3705 111.012 13.854C110.957 13.3885 110.908 12.9826 110.868 12.6164C110.852 12.2578 110.84 11.9408 110.84 11.6532V6.15576H113.846V17.3001H110.84L106.479 11.5396C106.401 11.4166 106.261 11.1971 106.073 10.8508C105.88 10.4903 105.671 10.0692 105.445 9.60655C105.493 10.0626 105.548 10.4808 105.581 10.8234C105.597 11.1971 105.613 11.516 105.613 11.7932V17.3001H102.594ZM95.5515 15.3046V13.1321H97.1008L95.9415 9.45895C95.9072 9.35013 95.8494 9.16373 95.7935 8.91394C95.7318 8.6736 95.6456 8.35662 95.5515 7.97057V6.15576H97.5105L101.491 17.3001H98.362L97.7721 15.3046H95.5515Z" fill="white"/>
<path fill-rule="evenodd" clip-rule="evenodd" d="M152.86 5.99835L146.827 11.9918L152.86 18.0125L146.827 24.0002L134.746 11.9918L146.827 0L152.86 5.99835ZM171.002 11.9918L158.919 0L152.86 5.99835L158.919 11.9918L152.86 18.0125L158.919 24.0002L171.002 11.9918Z" fill="white"/>
</svg>
