<svg width="284" height="40" viewBox="0 0 284 40" fill="none" xmlns="http://www.w3.org/2000/svg">
<path fill-rule="evenodd" clip-rule="evenodd" d="M137.268 17.69H138.28C138.71 17.69 139.083 17.6569 139.427 17.6348V21.0033H137.268V25.0278H139.427V28.8205C138.939 28.8205 138.397 28.8331 137.782 28.8331H132.429V10.2592H137.67C138.298 10.2592 138.88 10.2592 139.427 10.2986V13.9919C139.109 13.9557 138.738 13.9273 138.366 13.9273H137.268V17.69ZM158.135 10.2592V13.2838L158.122 13.257C157.995 13.7427 157.922 14.1591 157.801 14.5738C157.687 14.9933 157.573 15.3939 157.466 15.7645L155.564 21.8864H158.135V25.5072H154.437L153.43 28.8331H148.267L154.841 10.2592H158.135ZM139.427 17.6348C140.093 17.5764 140.604 17.4677 140.938 17.2675C141.388 16.9773 141.62 16.5042 141.62 15.8371C141.62 15.1417 141.425 14.6575 140.961 14.38C140.671 14.186 140.149 14.0487 139.427 13.9919V10.2986C140.64 10.3191 141.56 10.3776 142.129 10.4627C143.008 10.5873 143.744 10.8286 144.352 11.1645C145.082 11.5477 145.595 12.0602 145.951 12.7068C146.342 13.3486 146.514 14.0788 146.514 14.9193C146.514 15.9696 146.251 16.7818 145.71 17.4252C145.123 18.0386 144.276 18.4944 143.055 18.8508C144.406 18.9564 145.465 19.3964 146.222 20.2054C147.007 21.0444 147.371 22.1357 147.371 23.5171C147.371 24.5185 147.171 25.3748 146.738 26.1397C146.305 26.8809 145.679 27.477 144.9 27.887C144.237 28.215 143.433 28.461 142.469 28.6093C141.783 28.7307 140.749 28.781 139.427 28.8205V25.0278C140.471 24.9931 141.217 24.8623 141.67 24.5706C142.187 24.3072 142.455 23.7994 142.455 23.0898C142.455 22.3139 142.187 21.754 141.74 21.4781C141.3 21.1611 140.523 21.0269 139.427 21.0033V17.6348ZM192.503 28.8331V10.2592H197.66V18.6945L203.711 10.2592H209.756L202.696 19.319L210.369 28.8331H203.889L197.66 20.4907V28.8331H192.503ZM169.79 28.8331V10.2592H174.787L182 19.8047C182.136 20.0176 182.361 20.404 182.686 21.0033C183.005 21.5757 183.344 22.2838 183.722 23.0896C183.631 22.3137 183.55 21.6372 183.483 21.0269C183.458 20.4292 183.438 19.9009 183.438 19.4215V10.2592H188.412V28.8331H183.438L176.219 19.2323C176.091 19.0273 175.859 18.6614 175.548 18.0842C175.228 17.4834 174.883 16.7816 174.508 16.0105C174.588 16.7706 174.679 17.4676 174.734 18.0385C174.76 18.6614 174.787 19.1929 174.787 19.6549V28.8331H169.79ZM158.135 25.5072V21.8864H160.699L158.78 15.7645C158.723 15.5831 158.628 15.2724 158.535 14.8561C158.433 14.4556 158.29 13.9273 158.135 13.2838V10.2592H161.377L167.965 28.8331H162.786L161.81 25.5072H158.135Z" fill="black"/>
<path fill-rule="evenodd" clip-rule="evenodd" d="M82.8197 10.1837V15.9379C82.1009 15.1702 81.4128 14.5717 80.7068 14.1854C80.0074 13.8105 79.2418 13.6346 78.4328 13.6346C76.9807 13.6346 75.7752 14.1229 74.8291 15.1948C73.9234 16.2059 73.456 17.5475 73.456 19.2162C73.456 20.7665 73.9588 22.0456 74.8581 23.0978C75.8106 24.1237 77.0097 24.6186 78.4328 24.6186C79.2418 24.6186 80.0074 24.4344 80.7068 24.0596C81.4128 23.6962 82.1009 23.0978 82.8197 22.2758V28.0694C81.993 28.4311 81.1904 28.7649 80.4055 28.9655C79.5545 29.1775 78.7567 29.2581 77.9348 29.2581C76.9033 29.2581 75.9186 29.1529 75.0676 28.8783C74.1732 28.6465 73.3754 28.2634 72.6195 27.7521C71.2286 26.7854 70.1488 25.5606 69.4075 24.1007C68.65 22.6079 68.2954 20.9605 68.2954 19.1175C68.2954 17.6362 68.5307 16.2848 68.9933 15.088C69.451 13.8664 70.1843 12.7879 71.1223 11.7933C72.0313 10.8627 73.0337 10.1607 74.1732 9.69379C75.2868 9.21702 76.5584 9 77.9348 9C78.7567 9 79.5545 9.07563 80.4055 9.27949C81.1904 9.49651 81.993 9.77435 82.8197 10.1837ZM47.845 28.7649V9.42417H53.0087V16.9688H59.8986V9.42417H65.0737V28.7649H59.8986V20.8981H53.0087V28.7649H47.845ZM44.9279 10.1837V15.9379C44.214 15.1702 43.5226 14.5717 42.815 14.1854C42.1381 13.8105 41.3581 13.6346 40.5636 13.6346C39.0583 13.6346 37.864 14.1229 36.947 15.1948C36.0348 16.2059 35.5626 17.5475 35.5626 19.2162C35.5626 20.7665 36.0493 22.0456 36.9695 23.0978C37.9236 24.1237 39.1163 24.6186 40.5636 24.6186C41.3581 24.6186 42.1381 24.4344 42.815 24.0596C43.5226 23.6962 44.214 23.0978 44.9279 22.2758V28.0694C44.0931 28.4311 43.3018 28.7649 42.4927 28.9655C41.6724 29.1775 40.8649 29.2581 40.0446 29.2581C39.0131 29.2581 38.03 29.1529 37.171 28.8783C36.2814 28.6465 35.49 28.2634 34.7454 27.7521C33.3385 26.7854 32.2603 25.5606 31.5044 24.1007C30.7582 22.6079 30.3875 20.9605 30.3875 19.1175C30.3875 17.6362 30.655 16.2848 31.1111 15.088C31.5785 13.8664 32.278 12.7879 33.2273 11.7933C34.1459 10.8627 35.1371 10.1607 36.2604 9.69379C37.3999 9.21702 38.6376 9 40.0446 9C40.8649 9 41.6724 9.07563 42.4927 9.27949C43.3018 9.49651 44.0931 9.77435 44.9279 10.1837ZM16.1902 28.7649V9.42417H27.7813V13.6905H21.2057V17.0263H27.4042V21.1743H21.2057V24.4344H27.7813V28.7649H16.1902ZM95.0783 9.01977V13.4505C93.6471 13.4505 92.4642 14.0095 91.5133 15.088C90.564 16.1714 90.1095 17.5294 90.1095 19.1538C90.1095 20.7912 90.564 22.1558 91.4891 23.2179C92.4078 24.298 93.6117 24.8159 95.0783 24.8159V29.2894C93.7164 29.2894 92.4077 29.028 91.1764 28.5315C89.9387 28.0021 88.8685 27.2754 87.9048 26.3103C86.9329 25.3519 86.1996 24.2668 85.6839 23.0403C85.1972 21.8122 84.9377 20.5249 84.9377 19.1538C84.9377 17.753 85.1972 16.4575 85.6839 15.2458C86.1996 14.0095 86.9329 12.9293 87.9048 11.9659C88.8685 11.0354 89.9387 10.3087 91.1764 9.7744C92.4077 9.2483 93.7164 9.01977 95.0783 9.01977ZM4.25592 28.7649V14.0094H-0.000488281V9.42417H13.6551V14.0094H9.41163V28.7649H4.25592ZM130.161 28.7649H125.324L124.214 20.4015C124.151 19.8245 124.058 19.1965 124.008 18.4468C123.942 17.7201 123.895 16.926 123.842 16.081C123.732 16.9046 123.465 17.9289 123.124 19.1537C123.021 19.4052 122.979 19.6025 122.95 19.7094L120.373 28.7649H116.934L114.357 19.7094C114.325 19.6025 114.284 19.4052 114.183 19.1537C113.844 17.9289 113.583 16.9046 113.508 16.081C113.451 16.8175 113.39 17.5475 113.295 18.2791C113.245 18.9794 113.156 19.7094 113.076 20.4015L111.956 28.7649H107.15L110.064 9.42417H115.197L118.056 19.4052C118.056 19.4759 118.112 19.6025 118.13 19.7752C118.425 20.658 118.596 21.4011 118.652 22.0456C118.683 21.6938 118.738 21.3189 118.862 20.8981C118.944 20.4755 119.078 19.9626 119.223 19.3905L122.119 9.42417H127.241L130.161 28.7649ZM95.0783 29.2894V24.8159C96.5094 24.8159 97.66 24.298 98.6109 23.2179C99.5747 22.1295 100.013 20.7912 100.013 19.1538C100.013 17.5294 99.5747 16.1714 98.5915 15.088C97.6455 14.0095 96.4804 13.4505 95.0783 13.4505V9.01977C96.4127 9.01977 97.7067 9.2483 98.9638 9.7744C100.195 10.3087 101.312 11.0354 102.255 11.9659C103.188 12.9293 103.92 14.0095 104.424 15.2458C104.946 16.4575 105.199 17.753 105.199 19.1538C105.199 20.5249 104.946 21.8369 104.424 23.0699C103.936 24.2668 103.188 25.3519 102.255 26.3103C101.283 27.2754 100.195 28.0021 98.9284 28.5315C97.7067 29.028 96.4127 29.2894 95.0783 29.2894Z" fill="#ED1C24"/>
<path fill-rule="evenodd" clip-rule="evenodd" d="M252.979 9.99724L242.995 19.9864L252.979 30.0209L242.995 40.0003L223 19.9864L242.995 0L252.979 9.99724ZM283.003 19.9864L263.007 0L252.979 9.99724L263.007 19.9864L252.979 30.0209L263.007 40.0003L283.003 19.9864Z" fill="#ED1C24"/>
</svg>
